<svg xmlns="http://www.w3.org/2000/svg" viewBox="0 0 706.24 331.41"><defs><style>.cls-1{fill:#1d2087;}</style></defs><g id="图层_2" data-name="图层 2"><g id="图层_1-2" data-name="图层 1"><path class="cls-1" d="M642.08,284H599.83A17.11,17.11,0,0,0,583,301.22v12.93a17.11,17.11,0,0,0,16.88,17.26h42.25A17.1,17.1,0,0,0,659,314.15V301.22A17.1,17.1,0,0,0,642.08,284Z"/><path class="cls-1" d="M466.34,47.45h48.59c10.68,0,19.4-7.75,19.4-17.25V17.26c0-9.51-8.72-17.26-19.4-17.26H466.34c-10.68,0-19.4,7.75-19.4,17.26V30.2C446.94,39.7,455.66,47.45,466.34,47.45Z"/><path class="cls-1" d="M151.25,98.43c-9.19-.07-18.14-.08-26.8.18-62.59,2-110.57,32.17-122.3,97-10,55.37,15.1,115.1,72,132.56,52.35,16.06,81.07-31.9,15.47-44.51-32.63-6.27-44.53-42-44.41-67.23h17.3c7.3,0,13.25-7.76,13.25-17.26V186.21c0-9.5-6-17.25-13.25-17.25H61.36a65.91,65.91,0,0,1,9.15-9.22c16.08-13.23,28.75-16.65,55-16.6l23.22,0c16.9,0,46.69-.75,49.28-23.86S167.39,98.56,151.25,98.43Z"/><path class="cls-1" d="M595.82,219.91V207c0-9.5-8.72-17.69-19.41-17.69-20.09,0-40.27.13-60.23.13-22.37,0-22.37-47.35,0-47.35,30.09,0,68.77.22,98.84.22,10.68,0,19.4-7.75,19.4-17.25V112.09c0-9.5-8.72-17.26-19.4-17.26-74.5,0-157.59.09-232.09.09-22.22,0-22.42-46.79-.36-47.35l-.14-.21h30c22.37,0,22.37-47.36,0-47.36h-87.3C267.94,0,181.83-1.19,184.23,76.2c.43,13.92,8.07,34.12,26.69,47.18,16.26,11.42,39.14,19,67.26,19,28.41,0,50.5-7.08,66.4-17.8,8.41-5.66,13.57-10.33,15.42-14,2.31,19.16.08,31,27.62,32.52,16.54.89,29.95,6.27,40.27,14.45,23.57,18.69,31.05,52,22.94,79.7-3.72,12.74-10.75,24.31-21,32.76-40.35,33.19-15.61,61.13,19.8,61.2s70.77.15,106.83.15c9.09,0,16.5-8.93,16.5-19.89v-7.58c0-10.95-7.41-19.89-16.5-19.89H496c-22.59,0-22.31-47.35,0-47.35,26.57,0,53.15.5,79.73.59v-.13h.73C587.1,237.16,595.82,229.41,595.82,219.91Zm-360-158.16A68.48,68.48,0,0,1,322.43,48q18.3,10.81,18.3,22c0,2.49-2.25,3.29-6.75,2.49H240.89C227.7,72.47,225,74.33,235.81,61.75ZM341.57,97.2c-6.28,9.39-20.66,20-25.9,22.72-26.27,13.5-83.45,8.26-89.09-30.24-.88-6,2.4-5.1,14.54-5.1l99.45.28C346,84.87,345.32,91.58,341.57,97.2Z"/><path class="cls-1" d="M686.84,189.28h-65c-10.69,0-19.41,7.75-19.41,17.26v12.93c0,9.51,8.72,17.26,19.41,17.26h65c10.68,0,19.4-7.75,19.4-17.26V206.54C706.24,197,697.52,189.28,686.84,189.28Z"/></g></g></svg>